<svg width="57" height="55" viewBox="0 0 57 55" fill="none" xmlns="http://www.w3.org/2000/svg">
<rect x="2" y="2" width="35.3077" height="35.3077" rx="8.63077" stroke="white" stroke-width="3.92308" stroke-linecap="round" stroke-linejoin="round"/>
<rect x="19.2615" y="17.6923" width="35.3077" height="35.3077" rx="8.63077" stroke="white" stroke-width="3.92308" stroke-linecap="round" stroke-linejoin="round"/>
<path fill-rule="evenodd" clip-rule="evenodd" d="M37.3077 17.6923V28.6769C37.3077 33.4436 33.4436 37.3077 28.6769 37.3077H19.2615V26.323C19.2615 21.5564 23.1257 17.6923 27.8923 17.6923H37.3077Z" fill="white"/>
<path d="M37.3077 17.6923H39.2692C39.2692 16.6089 38.391 15.7307 37.3077 15.7307V17.6923ZM19.2615 37.3077H17.3C17.3 38.391 18.1782 39.2692 19.2615 39.2692V37.3077ZM35.3462 17.6923V28.6769H39.2692V17.6923H35.3462ZM35.3462 28.6769C35.3462 32.3602 32.3602 35.3462 28.6769 35.3462V39.2692C34.5269 39.2692 39.2692 34.5269 39.2692 28.6769H35.3462ZM28.6769 35.3462H19.2615V39.2692H28.6769V35.3462ZM21.2231 37.3077V26.323H17.3V37.3077H21.2231ZM21.2231 26.323C21.2231 22.6397 24.209 19.6538 27.8923 19.6538V15.7307C22.0423 15.7307 17.3 20.4731 17.3 26.323H21.2231ZM27.8923 19.6538H37.3077V15.7307H27.8923V19.6538Z" fill="white"/>
</svg>
