<svg width="81" height="32" viewBox="0 0 81 32" fill="none" xmlns="http://www.w3.org/2000/svg">
<path d="M22.9588 31.36V0.639999H10.6457C8.451 0.639999 6.67671 1.08089 5.32284 1.96267C3.96898 2.83022 2.97851 3.92533 2.35146 5.248C1.7244 6.57067 1.41088 7.90756 1.41088 9.25867C1.41088 10.9796 1.80279 12.4089 2.5866 13.5467C3.35617 14.6844 4.41789 15.4453 5.77175 15.8293V14.7627C3.84784 15.1609 2.40846 16.0498 1.45363 17.4293C0.484544 18.8089 0 20.352 0 22.0587C0 23.8933 0.34203 25.5076 1.02609 26.9013C1.6959 28.2951 2.72199 29.3902 4.10436 30.1867C5.48673 30.9689 7.22538 31.36 9.32032 31.36H22.9588ZM17.0588 25.8987H9.91887C9.13505 25.8987 8.43674 25.7351 7.82394 25.408C7.21113 25.0667 6.73372 24.5973 6.39169 24C6.0354 23.3884 5.85726 22.6702 5.85726 21.8453C5.85726 21.12 6.0069 20.4729 6.30618 19.904C6.60546 19.3351 7.0615 18.8871 7.6743 18.56C8.27285 18.2187 9.02104 18.048 9.91887 18.048H17.0588V25.8987ZM17.0588 12.6293H10.7312C10.0756 12.6293 9.49133 12.5156 8.97829 12.288C8.46524 12.0604 8.05908 11.712 7.75981 11.2427C7.46053 10.7591 7.3109 10.1404 7.3109 9.38667C7.3109 8.448 7.60304 7.65867 8.18734 7.01867C8.77165 6.37866 9.6196 6.05866 10.7312 6.05866H17.0588V12.6293Z" fill="#323232"/>
<path d="M36.4698 32C34.1468 32 32.1089 31.4809 30.356 30.4427C28.6031 29.4044 27.2349 27.9751 26.2516 26.1547C25.2825 24.32 24.798 22.2151 24.798 19.84C24.798 17.4364 25.2968 15.3244 26.2944 13.504C27.292 11.6693 28.6672 10.24 30.4201 9.216C32.173 8.192 34.1896 7.68 36.4698 7.68C38.7927 7.68 40.8306 8.19911 42.5835 9.23733C44.3507 10.2756 45.7259 11.712 46.7093 13.5467C47.6926 15.3671 48.1843 17.4649 48.1843 19.84C48.1843 22.2293 47.6855 24.3413 46.6879 26.176C45.7046 27.9964 44.3293 29.4258 42.5622 30.464C40.8093 31.488 38.7785 32 36.4698 32ZM36.4698 26.5813C38.3367 26.5813 39.7262 25.9556 40.6382 24.704C41.5646 23.4382 42.0277 21.8169 42.0277 19.84C42.0277 17.792 41.5574 16.1564 40.6169 14.9333C39.6905 13.7102 38.3082 13.0987 36.4698 13.0987C35.2014 13.0987 34.1611 13.3831 33.3487 13.952C32.5364 14.5209 31.9307 15.3102 31.5317 16.32C31.1469 17.3298 30.9545 18.5031 30.9545 19.84C30.9545 21.9022 31.4177 23.5449 32.344 24.768C33.2846 25.9769 34.6598 26.5813 36.4698 26.5813Z" fill="#323232"/>
<path d="M50.1789 31.36V0H55.9934V31.36H50.1789Z" fill="#323232"/>
<path d="M69.6275 32C67.5041 32 65.6443 31.4667 64.0481 30.4C62.452 29.3333 61.205 27.8827 60.3072 26.048C59.4236 24.2133 58.9818 22.144 58.9818 19.84C58.9818 17.4933 59.4307 15.4098 60.3286 13.5893C61.2406 11.7547 62.5161 10.3111 64.155 9.25867C65.7939 8.20622 67.7178 7.68 69.9268 7.68C72.1215 7.68 73.967 8.21333 75.4634 9.28C76.9598 10.3467 78.0928 11.7973 78.8623 13.632C79.6319 15.4667 80.0167 17.536 80.0167 19.84C80.0167 22.144 79.6248 24.2133 78.8409 26.048C78.0714 27.8827 76.917 29.3333 75.3779 30.4C73.8388 31.4667 71.922 32 69.6275 32ZM70.5681 26.8373C71.8649 26.8373 72.8982 26.5458 73.6677 25.9627C74.4516 25.3796 75.0145 24.5618 75.3565 23.5093C75.6985 22.4569 75.8695 21.2338 75.8695 19.84C75.8695 18.4462 75.6985 17.2231 75.3565 16.1707C75.0145 15.1182 74.4658 14.3004 73.7105 13.7173C72.9694 13.1342 71.9932 12.8427 70.7818 12.8427C69.485 12.8427 68.4161 13.1627 67.5753 13.8027C66.7487 14.4284 66.1359 15.2747 65.7369 16.3413C65.3379 17.3938 65.1384 18.56 65.1384 19.84C65.1384 21.1342 65.3307 22.3147 65.7155 23.3813C66.1003 24.4338 66.6917 25.2729 67.4898 25.8987C68.2879 26.5244 69.314 26.8373 70.5681 26.8373ZM75.8695 31.36V15.5733H75.1427V0.639999H81V31.36H75.8695Z" fill="#323232"/>
</svg>
